<svg xmlns="http://www.w3.org/2000/svg" xmlns:xlink="http://www.w3.org/1999/xlink" width="116" height="116" viewBox="0 0 116 116">
  <defs>
    <path id="path-1" fill-rule="evenodd" d="M20 7h66c5.51915024 0 10 4.48084976 10 10v66c0 5.51915024-4.48084976 10-10 10H20c-5.51915024 0-10-4.48084976-10-10V17c0-5.51915024 4.48084976-10 10-10z"/>
    <filter id="filter-2" width="200%" height="200%" x="-50%" y="-50%" color-interpolation-filters="sRGB" filterUnits="userSpaceOnUse">
      <feOffset dx="5" dy="8" in="SourceAlpha" result="shadow-1-feOffset-shadow"/>
      <feGaussianBlur in="shadow-1-feOffset-shadow" result="shadow-1-feGaussianBlur-shadow" stdDeviation="9.036"/>
      <feColorMatrix in="shadow-1-feGaussianBlur-shadow" result="shadow-1-feColorMatrix-shadow" type="matrix" values="0 0 0 0 0  0 0 0 0 0  0 0 0 0 0  0 0 0 0.12 0"/>
    </filter>
  </defs>
  <g>
    <g>
      <use fill="black" stroke="black" stroke-opacity="0" stroke-width="0" filter="url(#filter-2)" xlink:href="#path-1"/>
      <use fill="rgb(151,145,104)" xlink:href="#path-1"/>
    </g>
    <path fill="rgb(255,255,255)" fill-rule="evenodd" d="M70.20459096 32C54.03286467 32 40.7312033 44.3816914 39.32167524 60.1168086c2.6870597-3.7715 5.9786929-7.4005 10.08803284-11.5725586.30545617-.3135.81136794-.3198086 1.12480355-.0110586.3134356.3055586.31820836.8075.01111156 1.11944141-.61889177.627-1.24725448 1.27775-1.87889845 1.9364414-.36116313.37525-.71434682.74894141-1.06111712 1.11625-.06361185.0680586-.12729826.13619141-.1909101.2058086-5.07820872 5.4118086-8.70870736 10.12217578-11.3449074 15.97261719-.17979854.399 0 .8676914.39934516 1.0465586.10656661.0475.21633992.0696914.32611323.0696914.3038901 0 .595028-.1741914.72702445-.4670586.9386662-2.08205859 2.02841983-4.01375 3.25345118-5.8931914 11.11096794-.2834414 21.2244306-6.4346914 26.52539263-16.2228086.13207101-.2454414.12565763-.5415-.01752495-.7821914-.14474864-.2375-.4041179-.38475-.68406967-.38475h-2.94635439l5.28343708-3.0051914c.16704634-.095.29591066-.2485586.35795644-.4290586C70.42726969 39.53825 71 36.16575 71 32.7916914 71 32.3546914 70.6436842 32 70.20459096 32z"/>
  </g>
</svg>
