<svg xmlns="http://www.w3.org/2000/svg" width="39.876" height="49.553" viewBox="0 0 39.876 49.553">
  <g>
    <path fill="rgb(255,255,255)" fill-rule="evenodd" d="M18.70657216 39.63623047c.28845215.39355469.7454834.62597656 1.23156738.62597656.48620606 0 .9432373-.23242187 1.23168946-.62597656.51379394-.69824219 12.57177734-17.21826172 12.57177734-25.69921875C33.74160634 6.25292969 27.54995594 0 19.93813954 0 12.32791005 0 6.13479482 6.25292969 6.13479482 13.93701172c0 8.48095703 12.0579834 25.00097656 12.57177734 25.69921875zM9.2022997 13.93701172c0-5.97753906 4.8157959-10.83984375 10.73596191-10.83984375 5.9185791 0 10.73596192 4.86230469 10.73596192 10.83984375 0 5.53125-6.89086914 16.59423828-10.73596192 22.12548828C16.09329091 30.53271484 9.2022997 19.47314453 9.2022997 13.93701172z"/>
    <path fill="rgb(255,255,255)" fill-rule="evenodd" d="M13.80337392 13.93701172c0 3.41601562 2.75146484 6.19384766 6.1348877 6.19384766 3.38330077 0 6.13476562-2.77783204 6.13476562-6.19384766 0-3.41601563-2.75146485-6.19433594-6.13476563-6.19433594-3.38342285 0-6.1348877 2.77832031-6.1348877 6.19433594zm3.06750488 0c0-1.70800781 1.37573242-3.09716797 3.06738281-3.09716797 1.69177246 0 3.06750489 1.38916016 3.06750489 3.09716797s-1.37573243 3.09716797-3.06750489 3.09716797c-1.69165039 0-3.06738281-1.38916016-3.06738281-3.09716797z"/>
    <path fill="rgb(255,255,255)" fill-rule="evenodd" d="M19.93824981 49.55347154C10.2727998 49.55347154 0 46.53072208 0 40.92655696c0-2.77962873 2.58583763-5.1860594 7.2789949-6.7779582.80366483-.26789736 1.67327927.16414521 1.94167878.97558.26993323.80988626-.16257342 1.6894568-.96470455 1.96199979-3.82967767 1.29612771-5.18854608 2.8802838-5.18854608 3.84037841 0 2.25467378 6.57195388 5.52983521 16.87082676 5.52983521 10.29887289 0 16.87082677-3.27516143 16.87082677-5.5298352 0-.96009461-1.36040212-2.5442507-5.1900798-3.84192696-.80213113-.27409153-1.23617149-1.15056499-.96623826-1.96199978.27146694-.80988626 1.14108138-1.2450259 1.9432125-.97558 4.69469098 1.59344733 7.2805286 4.00142654 7.2805286 6.77950673 0 5.60416512-10.27279978 8.62691458-19.9382498 8.62691458z"/>
  </g>
</svg>
