<svg xmlns="http://www.w3.org/2000/svg" width="34" height="24" viewBox="0 0 34 24">
  <g>
    <path fill="rgb(255,255,255)" fill-rule="evenodd" d="M17.29166667 10.23529412H33c.55191502 0 1 .44808497 1 1v1.52941176c0 .55191503-.44808498 1-1 1H17.29166667c-.55191503 0-1-.44808497-1-1v-1.52941176c0-.55191503.44808497-1 1-1z"/>
    <path fill="rgb(255,255,255)" fill-rule="evenodd" d="M1 0h32c.55191502 0 1 .44808498 1 1v1.52941176c0 .55191503-.44808498 1-1 1H1c-.55191502 0-1-.44808497-1-1V1c0-.55191502.44808498-1 1-1z"/>
    <path fill="rgb(255,255,255)" fill-rule="evenodd" d="M9.5 20.47058824H33c.55191502 0 1 .44808497 1 1V23c0 .55191502-.44808498 1-1 1H9.5c-.55191502 0-1-.44808498-1-1v-1.52941176c0-.55191503.44808498-1 1-1z"/>
  </g>
</svg>
