<svg xmlns="http://www.w3.org/2000/svg" xmlns:xlink="http://www.w3.org/1999/xlink" width="116" height="116" viewBox="0 0 116 116">
  <defs>
    <path id="path-1" fill-rule="evenodd" d="M20 7h66c5.51915024 0 10 4.48084976 10 10v66c0 5.51915024-4.48084976 10-10 10H20c-5.51915024 0-10-4.48084976-10-10V17c0-5.51915024 4.48084976-10 10-10z"/>
    <filter id="filter-2" width="200%" height="200%" x="-50%" y="-50%" color-interpolation-filters="sRGB" filterUnits="userSpaceOnUse">
      <feOffset dx="5" dy="8" in="SourceAlpha" result="shadow-1-feOffset-shadow"/>
      <feGaussianBlur in="shadow-1-feOffset-shadow" result="shadow-1-feGaussianBlur-shadow" stdDeviation="9.036"/>
      <feColorMatrix in="shadow-1-feGaussianBlur-shadow" result="shadow-1-feColorMatrix-shadow" type="matrix" values="0 0 0 0 0  0 0 0 0 0  0 0 0 0 0  0 0 0 0.12 0"/>
    </filter>
  </defs>
  <g>
    <g>
      <use fill="black" stroke="black" stroke-opacity="0" stroke-width="0" filter="url(#filter-2)" xlink:href="#path-1"/>
      <use fill="rgb(98,136,116)" xlink:href="#path-1"/>
    </g>
    <path fill="rgb(255,255,255)" fill-rule="evenodd" d="M42.71429443 32C38.4537964 32 35 35.45385742 35 39.71435547c0 4.26049805 3.45379639 7.71411133 7.71429443 7.71411133 4.26049805 0 7.71429444-3.45361328 7.71429444-7.71411133S46.97479248 32 42.71429443 32zm16.7142334 0h7.71429444C69.27307129 32 71 33.72680664 71 35.85717773v7.71435547c0 2.13012696-1.72692871 3.8569336-3.85717773 3.8569336h-7.71429444c-2.13018799 0-3.8571167-1.72680664-3.8571167-3.8569336v-7.71435547C55.57141113 33.72680664 57.29833984 32 59.42852783 32zm-16.7142334 12.85717773c-2.84033203 0-5.1428833-2.30249023-5.1428833-5.14282226s2.30255127-5.14282227 5.1428833-5.14282227c2.840271 0 5.14282227 2.30249024 5.14282227 5.14282227s-2.30255127 5.14282226-5.14282227 5.14282226zm25.71429444-1.28564453c0 .70996094-.57562256 1.28564453-1.28570557 1.28564453h-7.71429443c-.71008301 0-1.28570557-.57568359-1.28570557-1.28564453v-7.71435547c0-.70996093.57562256-1.28564453 1.28570557-1.28564453h7.71429443c.710083 0 1.28570557.5756836 1.28570557 1.28564453v7.71435547zm-29.57147217 9h7.71429443c2.13024903 0 3.85717774 1.72680664 3.85717774 3.85717774v7.71435547C50.42858887 66.27319336 48.70166016 68 46.57141113 68H38.8571167C36.7269287 68 35 66.27319336 35 64.1430664v-7.71435546c0-2.1303711 1.72692871-3.85717774 3.8571167-3.85717774zm24.42858887 5.9013672l4.22998047-4.24291993c.50415039-.5041504 1.32159423-.5041504 1.82574462 0 .5041504.50415039.5041504 1.3215332 0 1.8256836l-4.24285888 4.22998046 4.24285888 4.22998047c.2434082.24145508.38031006.57006836.38031006.9128418 0 .34301758-.13690185.67163086-.38031006.9128418-.24145507.2434082-.57006836.38037109-.91290283.38037109-.34277344 0-.67138672-.1369629-.9128418-.3803711l-4.22998046-4.24267578-4.22998047 4.24267578c-.24145508.2434082-.57006836.3803711-.91290283.3803711-.34277344 0-.67144776-.1369629-.9128418-.3803711-.2434082-.24121093-.38031006-.56982421-.38031006-.9128418 0-.34277343.13690186-.67138671.38031006-.91284179l4.24285889-4.22998047-4.2428589-4.22998047c-.50415038-.50415039-.50415038-1.3215332 0-1.8256836.5041504-.50415038 1.32159425-.50415038 1.82574464 0l4.22998047 4.24291993zM47.8571167 64.14282226c0 .70996093-.57562256 1.28564453-1.28570557 1.28564453H38.8571167c-.710083 0-1.28570557-.5756836-1.28570557-1.28564453V56.4284668c0-.70996094.57562256-1.28564453 1.28570557-1.28564453h7.71429443c.71008301 0 1.28570557.57568359 1.28570557 1.28564453v7.71435547z"/>
  </g>
</svg>
