<svg xmlns="http://www.w3.org/2000/svg" xmlns:xlink="http://www.w3.org/1999/xlink" width="56.569" height="34.776" viewBox="0 0 56.569 34.776">
  <defs>
    <rect id="rect-1" width="53.747" height="31.953" x="1.411" y="1.411"/>
    <path id="path-2" fill-rule="evenodd" d="M50.72751363 8.87185474l-16.19660646 9.85344528c-.21789156.21114525-.58104418.35190876-.87156626.35190876-.2905221 0-.6536747-.1407635-.87156627-.35190876L16.59116818 8.87185474c-.50841366-.49267226-.50841366-1.26687153 0-1.7595438.50841366-.49267226 1.3073494-.49267226 1.81576306 0l15.32504019 9.29039126 15.32504019-9.29039126c.50841366-.49267226 1.3073494-.49267226 1.81576306 0 .3631526.49267227.3631526 1.26687154-.14526105 1.7595438z"/>
    <mask id="mask-3" x="0" y="0" maskContentUnits="userSpaceOnUse" maskUnits="userSpaceOnUse">
      <rect width="56.569" height="34.776" x="0" y="0" fill="white"/>
      <use fill="black" xlink:href="#path-2"/>
    </mask>
    <path id="path-4" fill-rule="evenodd" d="M13.46805572 18.09186425c0 .63343577-.50841365 1.12610803-1.16208835 1.12610803H2.57347739c-.6536747 0-1.16208836-.49267226-1.16208836-1.12610803s.50841366-1.12610803 1.16208836-1.12610803h9.73248998c.6536747.07038175 1.16208835.56305402 1.16208835 1.12610803z"/>
    <mask id="mask-5" x="0" y="0" maskContentUnits="userSpaceOnUse" maskUnits="userSpaceOnUse">
      <rect width="56.569" height="34.776" x="0" y="0" fill="white"/>
      <use fill="black" xlink:href="#path-4"/>
    </mask>
    <path id="path-6" fill-rule="evenodd" d="M22.61950153 25.2004212c0 .63343577-.50841366 1.12610803-1.16208836 1.12610803H2.57347739c-.6536747 0-1.16208836-.49267226-1.16208836-1.12610803s.50841366-1.12610803 1.16208836-1.12610803h18.9565663c.58104418 0 1.08945784.49267226 1.08945784 1.12610803z"/>
    <mask id="mask-7" x="0" y="0" maskContentUnits="userSpaceOnUse" maskUnits="userSpaceOnUse">
      <rect width="56.569" height="34.776" x="0" y="0" fill="white"/>
      <use fill="black" xlink:href="#path-6"/>
    </mask>
    <path id="path-8" fill-rule="evenodd" d="M22.61950153 32.2385964c0 .63343577-.50841366 1.12610803-1.16208836 1.12610803H2.57347739c-.6536747 0-1.16208836-.49267226-1.16208836-1.12610803s.50841366-1.12610803 1.16208836-1.12610803h18.9565663c.58104418.07038175 1.08945784.56305401 1.08945784 1.12610803z"/>
    <mask id="mask-9" x="0" y="0" maskContentUnits="userSpaceOnUse" maskUnits="userSpaceOnUse">
      <rect width="56.569" height="34.776" x="0" y="0" fill="white"/>
      <use fill="black" xlink:href="#path-8"/>
    </mask>
    <path id="path-10" fill-rule="evenodd" d="M51.09066624 1.41138903H16.08275452c-2.25154618 0-3.99467872 1.7595438-3.99467872 3.87099636v.35190876c0 .63343577.50841366 1.12610803 1.16208836 1.12610803s1.16208835-.49267226 1.16208835-1.12610803V5.2823854c0-.91496277.79893575-1.68916205 1.74313254-1.68916205h35.00791172c.94419678 0 1.74313253.77419928 1.74313253 1.68916205v24.14094093c0 .91496278-.79893575 1.68916205-1.74313253 1.68916205H32.27936098c-.6536747 0-1.16208835.49267226-1.16208835 1.12610803s.50841365 1.12610803 1.16208835 1.12610803h18.88393579c2.25154618 0 3.99467872-1.7595438 3.99467872-3.87099636V5.2823854c-.07263052-2.11145256-1.81576306-3.87099636-4.06730925-3.87099636z"/>
    <mask id="mask-11" x="0" y="0" maskContentUnits="userSpaceOnUse" maskUnits="userSpaceOnUse">
      <rect width="56.569" height="34.776" x="0" y="0" fill="white"/>
      <use fill="black" xlink:href="#path-10"/>
    </mask>
  </defs>
  <g>
    <g>
      <use fill="rgb(255,255,255)" xlink:href="#path-2"/>
      <use fill-opacity="0" stroke="rgb(255,255,255)" stroke-linecap="butt" stroke-linejoin="miter" stroke-width=".6" mask="url(#mask-3)" xlink:href="#path-2"/>
    </g>
    <g>
      <use fill="rgb(255,255,255)" xlink:href="#path-4"/>
      <use fill-opacity="0" stroke="rgb(255,255,255)" stroke-linecap="butt" stroke-linejoin="miter" stroke-width=".6" mask="url(#mask-5)" xlink:href="#path-4"/>
    </g>
    <g>
      <use fill="rgb(255,255,255)" xlink:href="#path-6"/>
      <use fill-opacity="0" stroke="rgb(255,255,255)" stroke-linecap="butt" stroke-linejoin="miter" stroke-width=".6" mask="url(#mask-7)" xlink:href="#path-6"/>
    </g>
    <g>
      <use fill="rgb(255,255,255)" xlink:href="#path-8"/>
      <use fill-opacity="0" stroke="rgb(255,255,255)" stroke-linecap="butt" stroke-linejoin="miter" stroke-width=".6" mask="url(#mask-9)" xlink:href="#path-8"/>
    </g>
    <g>
      <use fill="rgb(255,255,255)" xlink:href="#path-10"/>
      <use fill-opacity="0" stroke="rgb(255,255,255)" stroke-linecap="butt" stroke-linejoin="miter" stroke-width=".6" mask="url(#mask-11)" xlink:href="#path-10"/>
    </g>
  </g>
</svg>
