<svg xmlns="http://www.w3.org/2000/svg" width="42.866" height="43.984" viewBox="0 0 42.866 43.984">
  <path fill="rgb(255,255,255)" fill-rule="evenodd" d="M9.01658702.14516334C7.09501929 0 5.02563867 1.0161434 3.69532255 2.32261348 1.33031612 4.79039031 0 8.56463722.2956258 10.74208736 2.06938063 23.22613483 18.92005145 40.93606264 31.48414812 43.5490028c2.06938063.43549002 6.06032898-.58065337 8.72096122-2.75810351 1.47812901-1.30647009 2.51281933-3.19359354 2.66063223-5.080717 0-2.32261348-9.31221282-8.70980056-12.12065796-7.8388205-1.33031612.43549002-1.92156773 2.32261348-2.51281933 3.48392022-1.18250322 1.88712346-2.66063224 1.45163343-4.13876126.14516334-3.99094835-3.19359354-9.16439992-8.56463722-12.12065796-12.77437415-1.18250322-1.45163343-1.62594192-3.0484302.4434387-3.91941026 1.18250322-.58065337 3.10407095-1.0161434 3.69532255-2.32261348C17.29410953 9.8711073 11.38159345.14516334 9.01658702.14516334z"/>
</svg>
